<svg xmlns="http://www.w3.org/2000/svg" width="64" height="96" viewBox="0 0 64 96">
  <!-- Shadow -->
  <ellipse cx="32" cy="88" rx="21" ry="7" fill="rgba(0,0,0,0.25)"/>
  <!-- Castle: central keep + two flanking towers, portcullis (proposal defended) -->
  <!-- Central keep left wall -->
  <polygon points="18,84 32,76 32,40 18,48" fill="rgb(58,77,85)"/>
  <!-- Central keep right wall -->
  <polygon points="32,76 46,84 46,48 32,40" fill="#546E7A"/>
  <!-- Floor lines -->
  <line x1="18" y1="70" x2="32" y2="62" stroke="rgba(0,0,0,0.08)" stroke-width="0.4"/>
  <line x1="32" y1="62" x2="46" y2="70" stroke="rgba(0,0,0,0.06)" stroke-width="0.4"/>
  <line x1="18" y1="56" x2="32" y2="48" stroke="rgba(0,0,0,0.08)" stroke-width="0.4"/>
  <line x1="32" y1="48" x2="46" y2="56" stroke="rgba(0,0,0,0.06)" stroke-width="0.4"/>
  <!-- Central battlements -->
  <rect x="19" y="45" width="2.5" height="4" fill="rgb(58,77,85)"/>
  <rect x="24" y="43" width="2.5" height="4" fill="rgb(58,77,85)"/>
  <rect x="29" y="41" width="2.5" height="4" fill="rgb(58,77,85)"/>
  <rect x="34" y="41" width="2.5" height="4" fill="#546E7A"/>
  <rect x="39" y="43" width="2.5" height="4" fill="#546E7A"/>
  <rect x="44" y="45" width="2.5" height="4" fill="#546E7A"/>
  <!-- Left tower -->
  <polygon points="10,72 18,68 18,38 10,42" fill="rgb(66,88,97)"/>
  <polygon points="8,42 14,34 20,38" fill="rgb(96,115,124)"/>
  <polygon points="14,34 20,38 20,36 14,32" fill="#78909C"/>
  <rect x="12" y="52" width="3" height="4" fill="#FFD700" opacity="0.8" rx="0.5"/>
  <rect x="13" y="53" width="1.5" height="2.5" fill="rgba(255,255,200,0.4)" rx="0.3"/>
  <!-- Right tower -->
  <polygon points="46,68 54,72 54,42 46,38" fill="#607D8B"/>
  <polygon points="44,38 50,34 56,42" fill="rgb(96,115,124)"/>
  <polygon points="50,34 56,42 56,40 50,32" fill="#78909C"/>
  <rect x="48" y="52" width="3" height="4" fill="#FFD700" opacity="0.7" rx="0.5"/>
  <rect x="49" y="53" width="1.5" height="2.5" fill="rgba(255,255,200,0.4)" rx="0.3"/>
  <!-- Main windows -->
  <rect x="22" y="72" width="4" height="4" fill="#FFD700" opacity="0.9" rx="0.5"/>
  <rect x="23" y="73" width="2" height="2.5" fill="rgba(255,255,200,0.5)" rx="0.3"/>
  <rect x="22" y="58" width="4" height="4" fill="#FFD700" opacity="0.85" rx="0.5"/>
  <rect x="23" y="59" width="2" height="2.5" fill="rgba(255,255,200,0.5)" rx="0.3"/>
  <rect x="38" y="74" width="4" height="4" fill="#FFD700" opacity="0.7" rx="0.5"/>
  <rect x="39" y="75" width="2" height="2.5" fill="rgba(255,255,200,0.4)" rx="0.3"/>
  <rect x="38" y="60" width="4" height="4" fill="#FFD700" opacity="0.65" rx="0.5"/>
  <rect x="39" y="61" width="2" height="2.5" fill="rgba(255,255,200,0.4)" rx="0.3"/>
  <!-- Portcullis gate -->
  <rect x="34" y="74" width="8" height="10" fill="rgb(33,44,48)" rx="1.5"/>
  <rect x="35" y="75" width="6" height="9" fill="rgb(46,60,67)" rx="1"/>
  <path d="M35,75 Q38,72 41,75" fill="rgb(33,44,48)"/>
  <line x1="37" y1="75" x2="37" y2="84" stroke="rgba(0,0,0,0.2)" stroke-width="0.5"/>
  <line x1="39" y1="75" x2="39" y2="84" stroke="rgba(0,0,0,0.2)" stroke-width="0.5"/>
</svg>