<svg xmlns="http://www.w3.org/2000/svg" width="64" height="96" viewBox="0 0 64 96"><ellipse cx="32" cy="88" rx="21.12" ry="7.040000000000001" fill="rgba(0,0,0,0.25)"/><polygon points="14.399999999999999,84 32,75.2 32,3.1999999999999993 14.399999999999999,12" fill="rgb(58,77,85)"/><polygon points="32,75.2 49.6,84 49.6,12 32,3.1999999999999993" fill="#546E7A"/><line x1="14.399999999999999" y1="66" x2="32" y2="57.2" stroke="rgba(0,0,0,0.15)" stroke-width="0.5"/><line x1="32" y1="57.2" x2="49.6" y2="66" stroke="rgba(0,0,0,0.1)" stroke-width="0.5"/><line x1="14.399999999999999" y1="48" x2="32" y2="39.2" stroke="rgba(0,0,0,0.15)" stroke-width="0.5"/><line x1="32" y1="39.2" x2="49.6" y2="48" stroke="rgba(0,0,0,0.1)" stroke-width="0.5"/><line x1="14.399999999999999" y1="30" x2="32" y2="21.2" stroke="rgba(0,0,0,0.15)" stroke-width="0.5"/><line x1="32" y1="21.2" x2="49.6" y2="30" stroke="rgba(0,0,0,0.1)" stroke-width="0.5"/><rect x="20.4" y="75" width="5" height="5" fill="#FFD700" opacity="0.9" rx="0.5"/><rect x="21.4" y="76" width="3" height="3" fill="rgba(255,255,200,0.5)" rx="0.3"/><rect x="30.4" y="75" width="5" height="5" fill="#FFD700" opacity="0.9" rx="0.5"/><rect x="31.4" y="76" width="3" height="3" fill="rgba(255,255,200,0.5)" rx="0.3"/><rect x="20.4" y="57" width="5" height="5" fill="#FFD700" opacity="0.9" rx="0.5"/><rect x="21.4" y="58" width="3" height="3" fill="rgba(255,255,200,0.5)" rx="0.3"/><rect x="30.4" y="57" width="5" height="5" fill="#FFD700" opacity="0.9" rx="0.5"/><rect x="31.4" y="58" width="3" height="3" fill="rgba(255,255,200,0.5)" rx="0.3"/><rect x="20.4" y="39" width="5" height="5" fill="#FFD700" opacity="0.9" rx="0.5"/><rect x="21.4" y="40" width="3" height="3" fill="rgba(255,255,200,0.5)" rx="0.3"/><rect x="30.4" y="39" width="5" height="5" fill="#FFD700" opacity="0.9" rx="0.5"/><rect x="31.4" y="40" width="3" height="3" fill="rgba(255,255,200,0.5)" rx="0.3"/><rect x="20.4" y="21" width="5" height="5" fill="#FFD700" opacity="0.9" rx="0.5"/><rect x="21.4" y="22" width="3" height="3" fill="rgba(255,255,200,0.5)" rx="0.3"/><rect x="30.4" y="21" width="5" height="5" fill="#FFD700" opacity="0.9" rx="0.5"/><rect x="31.4" y="22" width="3" height="3" fill="rgba(255,255,200,0.5)" rx="0.3"/><rect x="36" y="75" width="5" height="5" fill="#FFD700" opacity="0.7" rx="0.5"/><rect x="37" y="76" width="3" height="3" fill="rgba(255,255,200,0.4)" rx="0.3"/><rect x="46" y="75" width="5" height="5" fill="#FFD700" opacity="0.7" rx="0.5"/><rect x="47" y="76" width="3" height="3" fill="rgba(255,255,200,0.4)" rx="0.3"/><rect x="36" y="57" width="5" height="5" fill="#FFD700" opacity="0.7" rx="0.5"/><rect x="37" y="58" width="3" height="3" fill="rgba(255,255,200,0.4)" rx="0.3"/><rect x="46" y="57" width="5" height="5" fill="#FFD700" opacity="0.7" rx="0.5"/><rect x="47" y="58" width="3" height="3" fill="rgba(255,255,200,0.4)" rx="0.3"/><rect x="36" y="39" width="5" height="5" fill="#FFD700" opacity="0.7" rx="0.5"/><rect x="37" y="40" width="3" height="3" fill="rgba(255,255,200,0.4)" rx="0.3"/><rect x="46" y="39" width="5" height="5" fill="#FFD700" opacity="0.7" rx="0.5"/><rect x="47" y="40" width="3" height="3" fill="rgba(255,255,200,0.4)" rx="0.3"/><rect x="36" y="21" width="5" height="5" fill="#FFD700" opacity="0.7" rx="0.5"/><rect x="37" y="22" width="3" height="3" fill="rgba(255,255,200,0.4)" rx="0.3"/><rect x="46" y="21" width="5" height="5" fill="#FFD700" opacity="0.7" rx="0.5"/><rect x="47" y="22" width="3" height="3" fill="rgba(255,255,200,0.4)" rx="0.3"/><polygon points="12.399999999999999,12 32,1.1999999999999993 32,-14" fill="rgb(96,115,124)"/><polygon points="32,1.1999999999999993 51.6,12 51.6,10 32,-14" fill="#78909C"/><circle cx="32" cy="-16" r="2" fill="#FFD700"/><rect x="34" y="67.6" width="9" height="12" fill="rgb(33,44,48)" rx="1"/><rect x="35" y="68.6" width="7" height="11" fill="rgb(46,60,67)" rx="0.5"/><rect x="43.6" y="4" width="4" height="8" fill="rgb(42,55,61)" rx="0.5"/><line x1="47.6" y1="0" x2="47.6" y2="-12" stroke="#5D4037" stroke-width="1"/><polygon points="48.6,-12 57.6,-9 48.6,-6" fill="#FFD700"/></svg>