<svg xmlns="http://www.w3.org/2000/svg" width="64" height="96" viewBox="0 0 64 96"><ellipse cx="32" cy="88" rx="21.12" ry="7.040000000000001" fill="rgba(0,0,0,0.25)"/><polygon points="14.399999999999999,84 32,75.2 32,-24.8 14.399999999999999,-16" fill="rgb(58,77,85)"/><polygon points="32,75.2 49.6,84 49.6,-16 32,-24.8" fill="#546E7A"/><line x1="14.399999999999999" y1="64" x2="32" y2="55.2" stroke="rgba(0,0,0,0.15)" stroke-width="0.5"/><line x1="32" y1="55.2" x2="49.6" y2="64" stroke="rgba(0,0,0,0.1)" stroke-width="0.5"/><line x1="14.399999999999999" y1="44" x2="32" y2="35.2" stroke="rgba(0,0,0,0.15)" stroke-width="0.5"/><line x1="32" y1="35.2" x2="49.6" y2="44" stroke="rgba(0,0,0,0.1)" stroke-width="0.5"/><line x1="14.399999999999999" y1="24" x2="32" y2="15.2" stroke="rgba(0,0,0,0.15)" stroke-width="0.5"/><line x1="32" y1="15.2" x2="49.6" y2="24" stroke="rgba(0,0,0,0.1)" stroke-width="0.5"/><line x1="14.399999999999999" y1="4" x2="32" y2="-4.800000000000001" stroke="rgba(0,0,0,0.15)" stroke-width="0.5"/><line x1="32" y1="-4.800000000000001" x2="49.6" y2="4" stroke="rgba(0,0,0,0.1)" stroke-width="0.5"/><rect x="20.4" y="74" width="5" height="5" fill="#FFD700" opacity="0.9" rx="0.5"/><rect x="21.4" y="75" width="3" height="3" fill="rgba(255,255,200,0.5)" rx="0.3"/><rect x="30.4" y="74" width="5" height="5" fill="#FFD700" opacity="0.9" rx="0.5"/><rect x="31.4" y="75" width="3" height="3" fill="rgba(255,255,200,0.5)" rx="0.3"/><rect x="20.4" y="54" width="5" height="5" fill="#FFD700" opacity="0.9" rx="0.5"/><rect x="21.4" y="55" width="3" height="3" fill="rgba(255,255,200,0.5)" rx="0.3"/><rect x="30.4" y="54" width="5" height="5" fill="#FFD700" opacity="0.9" rx="0.5"/><rect x="31.4" y="55" width="3" height="3" fill="rgba(255,255,200,0.5)" rx="0.3"/><rect x="20.4" y="34" width="5" height="5" fill="#FFD700" opacity="0.9" rx="0.5"/><rect x="21.4" y="35" width="3" height="3" fill="rgba(255,255,200,0.5)" rx="0.3"/><rect x="30.4" y="34" width="5" height="5" fill="#FFD700" opacity="0.9" rx="0.5"/><rect x="31.4" y="35" width="3" height="3" fill="rgba(255,255,200,0.5)" rx="0.3"/><rect x="20.4" y="14" width="5" height="5" fill="#FFD700" opacity="0.9" rx="0.5"/><rect x="21.4" y="15" width="3" height="3" fill="rgba(255,255,200,0.5)" rx="0.3"/><rect x="30.4" y="14" width="5" height="5" fill="#FFD700" opacity="0.9" rx="0.5"/><rect x="31.4" y="15" width="3" height="3" fill="rgba(255,255,200,0.5)" rx="0.3"/><rect x="36" y="74" width="5" height="5" fill="#FFD700" opacity="0.7" rx="0.5"/><rect x="37" y="75" width="3" height="3" fill="rgba(255,255,200,0.4)" rx="0.3"/><rect x="46" y="74" width="5" height="5" fill="#FFD700" opacity="0.7" rx="0.5"/><rect x="47" y="75" width="3" height="3" fill="rgba(255,255,200,0.4)" rx="0.3"/><rect x="36" y="54" width="5" height="5" fill="#FFD700" opacity="0.7" rx="0.5"/><rect x="37" y="55" width="3" height="3" fill="rgba(255,255,200,0.4)" rx="0.3"/><rect x="46" y="54" width="5" height="5" fill="#FFD700" opacity="0.7" rx="0.5"/><rect x="47" y="55" width="3" height="3" fill="rgba(255,255,200,0.4)" rx="0.3"/><rect x="36" y="34" width="5" height="5" fill="#FFD700" opacity="0.7" rx="0.5"/><rect x="37" y="35" width="3" height="3" fill="rgba(255,255,200,0.4)" rx="0.3"/><rect x="46" y="34" width="5" height="5" fill="#FFD700" opacity="0.7" rx="0.5"/><rect x="47" y="35" width="3" height="3" fill="rgba(255,255,200,0.4)" rx="0.3"/><rect x="36" y="14" width="5" height="5" fill="#FFD700" opacity="0.7" rx="0.5"/><rect x="37" y="15" width="3" height="3" fill="rgba(255,255,200,0.4)" rx="0.3"/><rect x="46" y="14" width="5" height="5" fill="#FFD700" opacity="0.7" rx="0.5"/><rect x="47" y="15" width="3" height="3" fill="rgba(255,255,200,0.4)" rx="0.3"/><polygon points="12.399999999999999,-16 32,-26.8 32,-45" fill="rgb(96,115,124)"/><polygon points="32,-26.8 51.6,-16 51.6,-18 32,-45" fill="#78909C"/><circle cx="32" cy="-47" r="2" fill="#FFD700"/><rect x="34" y="66.6" width="10" height="13" fill="rgb(33,44,48)" rx="1"/><rect x="35" y="67.6" width="8" height="12" fill="rgb(46,60,67)" rx="0.5"/><rect x="43.6" y="-24" width="4" height="8" fill="rgb(42,55,61)" rx="0.5"/><line x1="47.6" y1="-28" x2="47.6" y2="-40" stroke="#5D4037" stroke-width="1"/><polygon points="48.6,-40 57.6,-37 48.6,-34" fill="#FFD700"/></svg>