<svg xmlns="http://www.w3.org/2000/svg" width="64" height="96" viewBox="0 0 64 96">
  <ellipse cx="32" cy="88" rx="21" ry="7" fill="rgba(0,0,0,0.25)"/>
  <polygon points="20,84 32,78 32,58 20,64" fill="rgb(133,37,8)"/>
  <polygon points="32,78 44,84 44,64 32,58" fill="#BF360C"/>
  <polygon points="17,65 32,55 32,58 17,68" fill="#8D6E63"/>
  <polygon points="32,55 47,65 47,68 32,58" fill="rgb(113,87,74)"/>
  <rect x="34" y="68" width="6" height="13" fill="rgb(50,14,3)" rx="0.5"/>
  <polygon points="36,78 38,75 40,75 42,78" fill="rgb(80,80,80)"/>
  <rect x="37" y="74" width="4" height="1.5" fill="rgb(90,90,90)"/>
  <rect x="35" y="69" width="4" height="3" fill="#FF9800" opacity="0.6" rx="0.3"/>
  <rect x="22" y="52" width="3" height="8" fill="#8D6E63" rx="0.3"/>
  <circle cx="23.5" cy="50" r="1.5" fill="rgba(180,180,180,0.3)"/>
  <circle cx="24" cy="47" r="1" fill="rgba(180,180,180,0.2)"/>
</svg>