<svg xmlns="http://www.w3.org/2000/svg" width="64" height="96" viewBox="0 0 64 96">
  <ellipse cx="32" cy="88" rx="21" ry="7" fill="rgba(0,0,0,0.25)"/>
  <polygon points="18,84 32,77 32,48 18,55" fill="rgb(133,37,8)"/>
  <polygon points="32,77 46,84 46,55 32,48" fill="#BF360C"/>
  <polygon points="15,56 32,45 32,48 15,59" fill="#8D6E63"/>
  <polygon points="32,45 49,56 49,59 32,48" fill="rgb(113,87,74)"/>
  <line x1="18" y1="68" x2="32" y2="61" stroke="rgba(0,0,0,0.15)" stroke-width="0.5"/>
  <line x1="32" y1="61" x2="46" y2="68" stroke="rgba(0,0,0,0.1)" stroke-width="0.5"/>
  <rect x="22" y="69" width="4" height="4" fill="#FF9800" opacity="0.9" rx="0.5"/>
  <rect x="23" y="70" width="2" height="2" fill="rgba(255,255,200,0.5)" rx="0.3"/>
  <rect x="22" y="57" width="4" height="4" fill="#FF9800" opacity="0.9" rx="0.5"/>
  <rect x="23" y="58" width="2" height="2" fill="rgba(255,255,200,0.5)" rx="0.3"/>
  <rect x="38" y="69" width="4" height="4" fill="#FF9800" opacity="0.7" rx="0.5"/>
  <rect x="39" y="70" width="2" height="2" fill="rgba(255,255,200,0.4)" rx="0.3"/>
  <rect x="38" y="57" width="4" height="4" fill="#FF9800" opacity="0.7" rx="0.5"/>
  <rect x="39" y="58" width="2" height="2" fill="rgba(255,255,200,0.4)" rx="0.3"/>
  <circle cx="44" cy="62" r="3" fill="none" stroke="#8D6E63" stroke-width="0.8"/>
  <circle cx="44" cy="62" r="1" fill="#8D6E63"/>
  <rect x="34" y="72" width="6" height="9" fill="rgb(76,21,4)" rx="0.8"/>
  <rect x="35" y="73" width="4" height="8" fill="rgb(105,29,6)" rx="0.5"/>
  <rect x="40" y="42" width="4" height="10" fill="#8D6E63" rx="0.3"/>
  <circle cx="42" cy="40" r="1.5" fill="rgba(180,180,180,0.3)"/>
  <circle cx="43" cy="37" r="1" fill="rgba(180,180,180,0.2)"/>
</svg>