<svg xmlns="http://www.w3.org/2000/svg" width="64" height="96" viewBox="0 0 64 96"><ellipse cx="32" cy="88" rx="21.12" ry="7.040000000000001" fill="rgba(0,0,0,0.25)"/><polygon points="14.399999999999999,84 32,75.2 32,47.2 14.399999999999999,56" fill="rgb(133,37,8)"/><polygon points="32,75.2 49.6,84 49.6,56 32,47.2" fill="#BF360C"/><line x1="14.399999999999999" y1="70" x2="32" y2="61.2" stroke="rgba(0,0,0,0.15)" stroke-width="0.5"/><line x1="32" y1="61.2" x2="49.6" y2="70" stroke="rgba(0,0,0,0.1)" stroke-width="0.5"/><rect x="20.4" y="77" width="5" height="5" fill="#FF9800" opacity="0.9" rx="0.5"/><rect x="21.4" y="78" width="3" height="3" fill="rgba(255,255,200,0.5)" rx="0.3"/><rect x="30.4" y="77" width="5" height="5" fill="#FF9800" opacity="0.9" rx="0.5"/><rect x="31.4" y="78" width="3" height="3" fill="rgba(255,255,200,0.5)" rx="0.3"/><rect x="20.4" y="63" width="5" height="5" fill="#FF9800" opacity="0.9" rx="0.5"/><rect x="21.4" y="64" width="3" height="3" fill="rgba(255,255,200,0.5)" rx="0.3"/><rect x="30.4" y="63" width="5" height="5" fill="#FF9800" opacity="0.9" rx="0.5"/><rect x="31.4" y="64" width="3" height="3" fill="rgba(255,255,200,0.5)" rx="0.3"/><rect x="36" y="77" width="5" height="5" fill="#FF9800" opacity="0.7" rx="0.5"/><rect x="37" y="78" width="3" height="3" fill="rgba(255,255,200,0.4)" rx="0.3"/><rect x="46" y="77" width="5" height="5" fill="#FF9800" opacity="0.7" rx="0.5"/><rect x="47" y="78" width="3" height="3" fill="rgba(255,255,200,0.4)" rx="0.3"/><rect x="36" y="63" width="5" height="5" fill="#FF9800" opacity="0.7" rx="0.5"/><rect x="37" y="64" width="3" height="3" fill="rgba(255,255,200,0.4)" rx="0.3"/><rect x="46" y="63" width="5" height="5" fill="#FF9800" opacity="0.7" rx="0.5"/><rect x="47" y="64" width="3" height="3" fill="rgba(255,255,200,0.4)" rx="0.3"/><polygon points="12.399999999999999,56 32,44.2 51.6,56 51.6,53 32,41.2 12.399999999999999,53" fill="#8D6E63"/><rect x="18.4" y="50" width="3" height="3" fill="rgb(98,77,69)"/><rect x="26.4" y="50" width="3" height="3" fill="rgb(98,77,69)"/><rect x="34.4" y="50" width="3" height="3" fill="rgb(98,77,69)"/><rect x="34" y="69.6" width="7" height="10" fill="rgb(76,21,4)" rx="1"/><rect x="35" y="70.6" width="5" height="9" fill="rgb(105,29,6)" rx="0.5"/></svg>