<svg xmlns="http://www.w3.org/2000/svg" width="64" height="96" viewBox="0 0 64 96">
  <ellipse cx="32" cy="88" rx="21" ry="7" fill="rgba(0,0,0,0.25)"/>
  <!-- Left wall -->
  <polygon points="14,84 32,75 32,16 14,25" fill="rgb(133,37,8)"/>
  <!-- Right wall -->
  <polygon points="32,75 50,84 50,25 32,16" fill="#BF360C"/>
  <!-- Stone base -->
  <polygon points="14,84 32,75 50,84 50,78 32,69 14,78" fill="rgb(100,80,68)"/>
  <!-- Floor lines -->
  <line x1="14" y1="68" x2="32" y2="59" stroke="rgba(0,0,0,0.15)" stroke-width="0.5"/>
  <line x1="32" y1="59" x2="50" y2="68" stroke="rgba(0,0,0,0.1)" stroke-width="0.5"/>
  <line x1="14" y1="52" x2="32" y2="43" stroke="rgba(0,0,0,0.15)" stroke-width="0.5"/>
  <line x1="32" y1="43" x2="50" y2="52" stroke="rgba(0,0,0,0.1)" stroke-width="0.5"/>
  <line x1="14" y1="36" x2="32" y2="27" stroke="rgba(0,0,0,0.15)" stroke-width="0.5"/>
  <line x1="32" y1="27" x2="50" y2="36" stroke="rgba(0,0,0,0.1)" stroke-width="0.5"/>
  <!-- Roof band -->
  <polygon points="14,25 32,16 50,25 50,22 32,13 14,22" fill="#8D6E63"/>
  <!-- Large gear mechanism on right wall -->
  <circle cx="46" cy="42" r="6" fill="none" stroke="#8D6E63" stroke-width="1"/>
  <circle cx="46" cy="42" r="2" fill="#8D6E63"/>
  <rect x="45" y="35" width="2" height="2" fill="#8D6E63"/>
  <rect x="45" y="47" width="2" height="2" fill="#8D6E63"/>
  <rect x="51" y="41" width="2" height="2" fill="#8D6E63"/>
  <rect x="39" y="41" width="2" height="2" fill="#8D6E63"/>
  <!-- Windows left wall - 3 floors -->
  <rect x="19" y="70" width="4" height="4" fill="#FF9800" opacity="0.9" rx="0.5"/>
  <rect x="20" y="71" width="2" height="2" fill="rgba(255,255,200,0.5)" rx="0.3"/>
  <rect x="26" y="70" width="4" height="4" fill="#FF9800" opacity="0.9" rx="0.5"/>
  <rect x="27" y="71" width="2" height="2" fill="rgba(255,255,200,0.5)" rx="0.3"/>
  <rect x="19" y="54" width="4" height="4" fill="#FF9800" opacity="0.9" rx="0.5"/>
  <rect x="20" y="55" width="2" height="2" fill="rgba(255,255,200,0.5)" rx="0.3"/>
  <rect x="26" y="54" width="4" height="4" fill="#FF9800" opacity="0.9" rx="0.5"/>
  <rect x="27" y="55" width="2" height="2" fill="rgba(255,255,200,0.5)" rx="0.3"/>
  <rect x="19" y="38" width="4" height="4" fill="#FF9800" opacity="0.9" rx="0.5"/>
  <rect x="20" y="39" width="2" height="2" fill="rgba(255,255,200,0.5)" rx="0.3"/>
  <rect x="26" y="38" width="4" height="4" fill="#FF9800" opacity="0.9" rx="0.5"/>
  <rect x="27" y="39" width="2" height="2" fill="rgba(255,255,200,0.5)" rx="0.3"/>
  <!-- Windows right wall (fewer due to gear) -->
  <rect x="36" y="70" width="4" height="4" fill="#FF9800" opacity="0.7" rx="0.5"/>
  <rect x="37" y="71" width="2" height="2" fill="rgba(255,255,200,0.4)" rx="0.3"/>
  <rect x="36" y="54" width="4" height="4" fill="#FF9800" opacity="0.7" rx="0.5"/>
  <rect x="37" y="55" width="2" height="2" fill="rgba(255,255,200,0.4)" rx="0.3"/>
  <!-- Door -->
  <rect x="34" y="69" width="8" height="11" fill="rgb(76,21,4)" rx="1"/>
  <rect x="35" y="70" width="6" height="10" fill="rgb(105,29,6)" rx="0.5"/>
  <!-- Chimney -->
  <rect x="20" y="10" width="4" height="10" fill="#8D6E63" rx="0.3"/>
  <!-- Smoke -->
  <circle cx="22" cy="8" r="1.5" fill="rgba(180,180,180,0.3)"/>
  <circle cx="23" cy="5" r="1" fill="rgba(180,180,180,0.2)"/>
</svg>