<svg xmlns="http://www.w3.org/2000/svg" width="64" height="96" viewBox="0 0 64 96">
  <ellipse cx="32" cy="88" rx="21" ry="7" fill="rgba(0,0,0,0.25)"/>
  <polygon points="12,84 32,74 32,8 12,18" fill="rgb(133,37,8)"/>
  <polygon points="32,74 52,84 52,18 32,8" fill="#BF360C"/>
  <polygon points="12,84 32,74 52,84 52,80 32,70 12,80" fill="#FF9800" opacity="0.6"/>
  <line x1="12" y1="68" x2="32" y2="58" stroke="rgba(0,0,0,0.15)" stroke-width="0.5"/>
  <line x1="32" y1="58" x2="52" y2="68" stroke="rgba(0,0,0,0.1)" stroke-width="0.5"/>
  <line x1="12" y1="52" x2="32" y2="42" stroke="rgba(0,0,0,0.15)" stroke-width="0.5"/>
  <line x1="32" y1="42" x2="52" y2="52" stroke="rgba(0,0,0,0.1)" stroke-width="0.5"/>
  <line x1="12" y1="36" x2="32" y2="26" stroke="rgba(0,0,0,0.15)" stroke-width="0.5"/>
  <line x1="32" y1="26" x2="52" y2="36" stroke="rgba(0,0,0,0.1)" stroke-width="0.5"/>
  <line x1="12" y1="20" x2="32" y2="10" stroke="rgba(0,0,0,0.15)" stroke-width="0.5"/>
  <line x1="32" y1="10" x2="52" y2="20" stroke="rgba(0,0,0,0.1)" stroke-width="0.5"/>
  <polygon points="12,18 32,8 52,18 52,14 32,4 12,14" fill="#8D6E63"/>
  <polygon points="12,18 32,8 52,18 52,16 32,6 12,16" fill="#FF9800" opacity="0.3"/>
  <circle cx="32" cy="0" r="5" fill="none" stroke="#FF9800" stroke-width="1" opacity="0.8"/>
  <circle cx="32" cy="0" r="2" fill="#FF9800" opacity="0.6"/>
  <rect x="31" y="-6" width="2" height="2" fill="#FF9800" opacity="0.7"/>
  <rect x="31" y="4" width="2" height="2" fill="#FF9800" opacity="0.7"/>
  <rect x="36" y="-1" width="2" height="2" fill="#FF9800" opacity="0.7"/>
  <rect x="25" y="-1" width="2" height="2" fill="#FF9800" opacity="0.7"/>
  <rect x="17" y="71" width="4" height="4" fill="#FF9800" opacity="0.9" rx="0.5"/>
  <rect x="18" y="72" width="2" height="2" fill="rgba(255,255,200,0.5)" rx="0.3"/>
  <rect x="24" y="71" width="4" height="4" fill="#FF9800" opacity="0.9" rx="0.5"/>
  <rect x="25" y="72" width="2" height="2" fill="rgba(255,255,200,0.5)" rx="0.3"/>
  <rect x="17" y="55" width="4" height="4" fill="#FF9800" opacity="0.9" rx="0.5"/>
  <rect x="18" y="56" width="2" height="2" fill="rgba(255,255,200,0.5)" rx="0.3"/>
  <rect x="24" y="55" width="4" height="4" fill="#FF9800" opacity="0.9" rx="0.5"/>
  <rect x="25" y="56" width="2" height="2" fill="rgba(255,255,200,0.5)" rx="0.3"/>
  <rect x="17" y="39" width="4" height="4" fill="#FF9800" opacity="0.9" rx="0.5"/>
  <rect x="18" y="40" width="2" height="2" fill="rgba(255,255,200,0.5)" rx="0.3"/>
  <rect x="24" y="39" width="4" height="4" fill="#FF9800" opacity="0.9" rx="0.5"/>
  <rect x="25" y="40" width="2" height="2" fill="rgba(255,255,200,0.5)" rx="0.3"/>
  <rect x="17" y="23" width="4" height="4" fill="#FF9800" opacity="0.9" rx="0.5"/>
  <rect x="18" y="24" width="2" height="2" fill="rgba(255,255,200,0.5)" rx="0.3"/>
  <rect x="24" y="23" width="4" height="4" fill="#FF9800" opacity="0.9" rx="0.5"/>
  <rect x="25" y="24" width="2" height="2" fill="rgba(255,255,200,0.5)" rx="0.3"/>
  <rect x="36" y="71" width="4" height="4" fill="#FF9800" opacity="0.7" rx="0.5"/>
  <rect x="37" y="72" width="2" height="2" fill="rgba(255,255,200,0.4)" rx="0.3"/>
  <rect x="43" y="71" width="4" height="4" fill="#FF9800" opacity="0.7" rx="0.5"/>
  <rect x="44" y="72" width="2" height="2" fill="rgba(255,255,200,0.4)" rx="0.3"/>
  <rect x="36" y="55" width="4" height="4" fill="#FF9800" opacity="0.7" rx="0.5"/>
  <rect x="37" y="56" width="2" height="2" fill="rgba(255,255,200,0.4)" rx="0.3"/>
  <rect x="43" y="55" width="4" height="4" fill="#FF9800" opacity="0.7" rx="0.5"/>
  <rect x="44" y="56" width="2" height="2" fill="rgba(255,255,200,0.4)" rx="0.3"/>
  <rect x="36" y="39" width="4" height="4" fill="#FF9800" opacity="0.7" rx="0.5"/>
  <rect x="37" y="40" width="2" height="2" fill="rgba(255,255,200,0.4)" rx="0.3"/>
  <rect x="43" y="39" width="4" height="4" fill="#FF9800" opacity="0.7" rx="0.5"/>
  <rect x="44" y="40" width="2" height="2" fill="rgba(255,255,200,0.4)" rx="0.3"/>
  <rect x="36" y="23" width="4" height="4" fill="#FF9800" opacity="0.7" rx="0.5"/>
  <rect x="37" y="24" width="2" height="2" fill="rgba(255,255,200,0.4)" rx="0.3"/>
  <rect x="43" y="23" width="4" height="4" fill="#FF9800" opacity="0.7" rx="0.5"/>
  <rect x="44" y="24" width="2" height="2" fill="rgba(255,255,200,0.4)" rx="0.3"/>
  <rect x="33" y="68" width="10" height="13" fill="rgb(76,21,4)" rx="1"/>
  <rect x="34" y="69" width="8" height="12" fill="rgb(105,29,6)" rx="0.5"/>
  <path d="M33,68 Q38,63 43,68" fill="none" stroke="#FF9800" stroke-width="0.8" opacity="0.6"/>
  <line x1="48" y1="-4" x2="48" y2="-16" stroke="#8D6E63" stroke-width="1"/>
  <polygon points="49,-16 57,-13 49,-10" fill="#FF9800"/>
</svg>