<svg xmlns="http://www.w3.org/2000/svg" width="64" height="20" viewBox="0 0 64 20"><rect x="6" y="3" width="3" height="14" fill="#8D6E63" rx="0.5"/><polygon points="6,3 7.5,0 9,3" fill="#6D4C41"/><rect x="19" y="3" width="3" height="14" fill="#8D6E63" rx="0.5"/><polygon points="19,3 20.5,0 22,3" fill="#6D4C41"/><rect x="32" y="3" width="3" height="14" fill="#8D6E63" rx="0.5"/><polygon points="32,3 33.5,0 35,3" fill="#6D4C41"/><rect x="45" y="3" width="3" height="14" fill="#8D6E63" rx="0.5"/><polygon points="45,3 46.5,0 48,3" fill="#6D4C41"/><rect x="58" y="3" width="3" height="14" fill="#8D6E63" rx="0.5"/><polygon points="58,3 59.5,0 61,3" fill="#6D4C41"/><rect x="6" y="6" width="56" height="2" fill="#795548" rx="0.5"/><rect x="6" y="13" width="56" height="2" fill="#795548" rx="0.5"/></svg>