<svg xmlns="http://www.w3.org/2000/svg" width="64" height="96" viewBox="0 0 64 96"><ellipse cx="32" cy="88" rx="21.12" ry="7.040000000000001" fill="rgba(0,0,0,0.25)"/><polygon points="14.399999999999999,84 32,75.2 32,63.2 14.399999999999999,72" fill="rgb(112,95,88)"/><polygon points="32,75.2 49.6,84 49.6,72 32,63.2" fill="#A1887F"/><rect x="20.4" y="78" width="5" height="5" fill="#FFE0B2" opacity="0.9" rx="0.5"/><rect x="21.4" y="79" width="3" height="3" fill="rgba(255,255,200,0.5)" rx="0.3"/><rect x="36" y="78" width="5" height="5" fill="#FFE0B2" opacity="0.7" rx="0.5"/><rect x="37" y="79" width="3" height="3" fill="rgba(255,255,200,0.4)" rx="0.3"/><polygon points="11.399999999999999,73 31,62.2 31,62 11.399999999999999,70.8" fill="rgb(87,60,52)"/><polygon points="31,62.2 52.6,73 52.6,70.8 31,62" fill="#6D4C41"/><rect x="34" y="70.6" width="6" height="9" fill="rgb(64,54,50)" rx="1"/><rect x="35" y="71.6" width="4" height="8" fill="rgb(88,74,69)" rx="0.5"/></svg>