<svg xmlns="http://www.w3.org/2000/svg" width="64" height="96" viewBox="0 0 64 96">
  <ellipse cx="32" cy="88" rx="21" ry="7" fill="rgba(0,0,0,0.25)"/>
  <polygon points="19,84 32,77 32,52 19,59" fill="rgb(112,95,88)"/>
  <polygon points="32,77 45,84 45,59 32,52" fill="#A1887F"/>
  <polygon points="16,60 32,48 32,52 16,63" fill="rgb(87,60,52)"/>
  <polygon points="32,48 48,60 48,63 32,52" fill="#6D4C41"/>
  <rect x="22" y="69" width="4" height="4" fill="#FFE0B2" opacity="0.9" rx="0.5"/>
  <rect x="23" y="70" width="2" height="2" fill="rgba(255,255,200,0.5)" rx="0.3"/>
  <rect x="22" y="61" width="4" height="4" fill="#FFE0B2" opacity="0.9" rx="0.5"/>
  <rect x="23" y="62" width="2" height="2" fill="rgba(255,255,200,0.5)" rx="0.3"/>
  <rect x="37" y="69" width="4" height="4" fill="#FFE0B2" opacity="0.7" rx="0.5"/>
  <rect x="38" y="70" width="2" height="2" fill="rgba(255,255,200,0.4)" rx="0.3"/>
  <rect x="35" y="73" width="5" height="8" fill="rgb(64,54,50)" rx="0.8"/>
  <rect x="36" y="74" width="3" height="7" fill="rgb(88,74,69)" rx="0.5"/>
  <rect x="40" y="46" width="3" height="8" fill="rgb(87,60,52)" rx="0.3"/>
  <rect x="22" y="73" width="5" height="1.5" fill="rgb(87,60,52)"/>
  <circle cx="23" cy="72.5" r="1" fill="#FF9800" opacity="0.6"/>
  <circle cx="25" cy="72.5" r="1" fill="#FF9800" opacity="0.5"/>
  <circle cx="27" cy="72.5" r="1" fill="#FF9800" opacity="0.6"/>
</svg>