<svg xmlns="http://www.w3.org/2000/svg" width="64" height="96" viewBox="0 0 64 96">
  <ellipse cx="32" cy="88" rx="21" ry="7" fill="rgba(0,0,0,0.25)"/>
  <!-- Left wall -->
  <polygon points="17,84 32,76 32,38 17,46" fill="rgb(112,95,88)"/>
  <!-- Right wall -->
  <polygon points="32,76 47,84 47,46 32,38" fill="#A1887F"/>
  <!-- Floor line -->
  <line x1="17" y1="64" x2="32" y2="56" stroke="rgba(0,0,0,0.15)" stroke-width="0.5"/>
  <line x1="32" y1="56" x2="47" y2="64" stroke="rgba(0,0,0,0.1)" stroke-width="0.5"/>
  <!-- Roof left -->
  <polygon points="14,47 32,35 32,38 14,50" fill="rgb(87,60,52)"/>
  <!-- Roof right -->
  <polygon points="32,35 50,47 50,50 32,38" fill="#6D4C41"/>
  <!-- Dormer window on roof -->
  <polygon points="38,42 42,38 46,42" fill="rgb(87,60,52)"/>
  <rect x="39" y="39" width="4" height="4" fill="#FFE0B2" opacity="0.8" rx="0.3"/>
  <rect x="40" y="40" width="2" height="2" fill="rgba(255,255,200,0.5)" rx="0.2"/>
  <!-- Windows left - floor 1 -->
  <rect x="21" y="70" width="4" height="4" fill="#FFE0B2" opacity="0.9" rx="0.5"/>
  <rect x="22" y="71" width="2" height="2" fill="rgba(255,255,200,0.5)" rx="0.3"/>
  <rect x="28" y="70" width="4" height="4" fill="#FFE0B2" opacity="0.9" rx="0.5"/>
  <rect x="29" y="71" width="2" height="2" fill="rgba(255,255,200,0.5)" rx="0.3"/>
  <!-- Windows left - floor 2 -->
  <rect x="21" y="55" width="4" height="4" fill="#FFE0B2" opacity="0.9" rx="0.5"/>
  <rect x="22" y="56" width="2" height="2" fill="rgba(255,255,200,0.5)" rx="0.3"/>
  <rect x="28" y="55" width="4" height="4" fill="#FFE0B2" opacity="0.9" rx="0.5"/>
  <rect x="29" y="56" width="2" height="2" fill="rgba(255,255,200,0.5)" rx="0.3"/>
  <!-- Windows right -->
  <rect x="36" y="70" width="4" height="4" fill="#FFE0B2" opacity="0.7" rx="0.5"/>
  <rect x="37" y="71" width="2" height="2" fill="rgba(255,255,200,0.4)" rx="0.3"/>
  <rect x="36" y="55" width="4" height="4" fill="#FFE0B2" opacity="0.7" rx="0.5"/>
  <rect x="37" y="56" width="2" height="2" fill="rgba(255,255,200,0.4)" rx="0.3"/>
  <!-- Door -->
  <rect x="34" y="72" width="6" height="9" fill="rgb(64,54,50)" rx="0.8"/>
  <rect x="35" y="73" width="4" height="8" fill="rgb(88,74,69)" rx="0.5"/>
  <!-- Chimney -->
  <rect x="19" y="34" width="3" height="8" fill="rgb(87,60,52)" rx="0.3"/>
</svg>