<svg xmlns="http://www.w3.org/2000/svg" width="64" height="96" viewBox="0 0 64 96">
  <ellipse cx="32" cy="88" rx="21" ry="7" fill="rgba(0,0,0,0.25)"/>
  <!-- Left wall -->
  <polygon points="15,84 32,75 32,24 15,33" fill="rgb(112,95,88)"/>
  <!-- Right wall -->
  <polygon points="32,75 49,84 49,33 32,24" fill="#A1887F"/>
  <!-- Stone base -->
  <polygon points="15,84 32,75 49,84 49,79 32,70 15,79" fill="rgb(90,76,70)"/>
  <!-- Floor lines -->
  <line x1="15" y1="66" x2="32" y2="57" stroke="rgba(0,0,0,0.15)" stroke-width="0.5"/>
  <line x1="32" y1="57" x2="49" y2="66" stroke="rgba(0,0,0,0.1)" stroke-width="0.5"/>
  <line x1="15" y1="48" x2="32" y2="39" stroke="rgba(0,0,0,0.15)" stroke-width="0.5"/>
  <line x1="32" y1="39" x2="49" y2="48" stroke="rgba(0,0,0,0.1)" stroke-width="0.5"/>
  <!-- Roof left -->
  <polygon points="12,34 32,21 32,24 12,37" fill="rgb(87,60,52)"/>
  <!-- Roof right -->
  <polygon points="32,21 52,34 52,37 32,24" fill="#6D4C41"/>
  <!-- Balcony ledge at second floor -->
  <polygon points="32,57 49,66 52,64 35,55 32,55" fill="rgb(90,76,70)"/>
  <rect x="35" y="55" width="1" height="3" fill="rgb(90,76,70)"/>
  <rect x="40" y="57" width="1" height="3" fill="rgb(90,76,70)"/>
  <rect x="45" y="59" width="1" height="3" fill="rgb(90,76,70)"/>
  <!-- Windows left wall - 3 floors -->
  <rect x="19" y="70" width="4" height="4" fill="#FFE0B2" opacity="0.9" rx="0.5"/>
  <rect x="20" y="71" width="2" height="2" fill="rgba(255,255,200,0.5)" rx="0.3"/>
  <rect x="26" y="70" width="4" height="4" fill="#FFE0B2" opacity="0.9" rx="0.5"/>
  <rect x="27" y="71" width="2" height="2" fill="rgba(255,255,200,0.5)" rx="0.3"/>
  <rect x="19" y="53" width="4" height="4" fill="#FFE0B2" opacity="0.9" rx="0.5"/>
  <rect x="20" y="54" width="2" height="2" fill="rgba(255,255,200,0.5)" rx="0.3"/>
  <rect x="26" y="53" width="4" height="4" fill="#FFE0B2" opacity="0.9" rx="0.5"/>
  <rect x="27" y="54" width="2" height="2" fill="rgba(255,255,200,0.5)" rx="0.3"/>
  <rect x="19" y="36" width="4" height="4" fill="#FFE0B2" opacity="0.9" rx="0.5"/>
  <rect x="20" y="37" width="2" height="2" fill="rgba(255,255,200,0.5)" rx="0.3"/>
  <rect x="26" y="36" width="4" height="4" fill="#FFE0B2" opacity="0.9" rx="0.5"/>
  <rect x="27" y="37" width="2" height="2" fill="rgba(255,255,200,0.5)" rx="0.3"/>
  <!-- Windows right wall -->
  <rect x="37" y="70" width="4" height="4" fill="#FFE0B2" opacity="0.7" rx="0.5"/>
  <rect x="38" y="71" width="2" height="2" fill="rgba(255,255,200,0.4)" rx="0.3"/>
  <rect x="43" y="70" width="4" height="4" fill="#FFE0B2" opacity="0.7" rx="0.5"/>
  <rect x="44" y="71" width="2" height="2" fill="rgba(255,255,200,0.4)" rx="0.3"/>
  <rect x="37" y="36" width="4" height="4" fill="#FFE0B2" opacity="0.7" rx="0.5"/>
  <rect x="38" y="37" width="2" height="2" fill="rgba(255,255,200,0.4)" rx="0.3"/>
  <rect x="43" y="36" width="4" height="4" fill="#FFE0B2" opacity="0.7" rx="0.5"/>
  <rect x="44" y="37" width="2" height="2" fill="rgba(255,255,200,0.4)" rx="0.3"/>
  <!-- Ornate door -->
  <rect x="34" y="70" width="7" height="10" fill="rgb(64,54,50)" rx="1"/>
  <rect x="35" y="71" width="5" height="9" fill="rgb(88,74,69)" rx="0.5"/>
  <path d="M34,70 Q37.5,67 41,70" fill="none" stroke="#FFE0B2" stroke-width="0.5" opacity="0.5"/>
  <!-- Chimney -->
  <rect x="20" y="18" width="3" height="10" fill="rgb(87,60,52)" rx="0.3"/>
</svg>