<svg xmlns="http://www.w3.org/2000/svg" width="64" height="96" viewBox="0 0 64 96">
  <ellipse cx="32" cy="88" rx="21" ry="7" fill="rgba(0,0,0,0.25)"/>
  <!-- Left wall -->
  <polygon points="13,84 32,74 32,14 13,24" fill="rgb(112,95,88)"/>
  <!-- Right wall -->
  <polygon points="32,74 51,84 51,24 32,14" fill="#A1887F"/>
  <!-- Decorative trim at base -->
  <polygon points="13,84 32,74 51,84 51,81 32,71 13,81" fill="#FFE0B2" opacity="0.4"/>
  <!-- Floor lines -->
  <line x1="13" y1="68" x2="32" y2="58" stroke="rgba(0,0,0,0.15)" stroke-width="0.5"/>
  <line x1="32" y1="58" x2="51" y2="68" stroke="rgba(0,0,0,0.1)" stroke-width="0.5"/>
  <line x1="13" y1="52" x2="32" y2="42" stroke="rgba(0,0,0,0.15)" stroke-width="0.5"/>
  <line x1="32" y1="42" x2="51" y2="52" stroke="rgba(0,0,0,0.1)" stroke-width="0.5"/>
  <line x1="13" y1="36" x2="32" y2="26" stroke="rgba(0,0,0,0.15)" stroke-width="0.5"/>
  <line x1="32" y1="26" x2="51" y2="36" stroke="rgba(0,0,0,0.1)" stroke-width="0.5"/>
  <!-- Roof left -->
  <polygon points="10,25 32,11 32,14 10,28" fill="rgb(87,60,52)"/>
  <!-- Roof right -->
  <polygon points="32,11 54,25 54,28 32,14" fill="#6D4C41"/>
  <!-- Decorative trim along roof -->
  <polygon points="10,25 32,11 54,25 54,23 32,9 10,23" fill="#FFE0B2" opacity="0.2"/>
  <!-- Two dormer windows -->
  <polygon points="20,24 24,19 28,24" fill="rgb(87,60,52)"/>
  <rect x="21" y="20" width="4" height="4" fill="#FFE0B2" opacity="0.8" rx="0.3"/>
  <rect x="22" y="21" width="2" height="2" fill="rgba(255,255,200,0.5)" rx="0.2"/>
  <polygon points="38,24 42,19 46,24" fill="#6D4C41"/>
  <rect x="39" y="20" width="4" height="4" fill="#FFE0B2" opacity="0.7" rx="0.3"/>
  <rect x="40" y="21" width="2" height="2" fill="rgba(255,255,200,0.4)" rx="0.2"/>
  <!-- Windows left wall - 3 floors -->
  <rect x="17" y="70" width="4" height="4" fill="#FFE0B2" opacity="0.9" rx="0.5"/>
  <rect x="18" y="71" width="2" height="2" fill="rgba(255,255,200,0.5)" rx="0.3"/>
  <rect x="24" y="70" width="4" height="4" fill="#FFE0B2" opacity="0.9" rx="0.5"/>
  <rect x="25" y="71" width="2" height="2" fill="rgba(255,255,200,0.5)" rx="0.3"/>
  <rect x="17" y="54" width="4" height="4" fill="#FFE0B2" opacity="0.9" rx="0.5"/>
  <rect x="18" y="55" width="2" height="2" fill="rgba(255,255,200,0.5)" rx="0.3"/>
  <rect x="24" y="54" width="4" height="4" fill="#FFE0B2" opacity="0.9" rx="0.5"/>
  <rect x="25" y="55" width="2" height="2" fill="rgba(255,255,200,0.5)" rx="0.3"/>
  <rect x="17" y="38" width="4" height="4" fill="#FFE0B2" opacity="0.9" rx="0.5"/>
  <rect x="18" y="39" width="2" height="2" fill="rgba(255,255,200,0.5)" rx="0.3"/>
  <rect x="24" y="38" width="4" height="4" fill="#FFE0B2" opacity="0.9" rx="0.5"/>
  <rect x="25" y="39" width="2" height="2" fill="rgba(255,255,200,0.5)" rx="0.3"/>
  <!-- Windows right wall -->
  <rect x="36" y="70" width="4" height="4" fill="#FFE0B2" opacity="0.7" rx="0.5"/>
  <rect x="37" y="71" width="2" height="2" fill="rgba(255,255,200,0.4)" rx="0.3"/>
  <rect x="43" y="70" width="4" height="4" fill="#FFE0B2" opacity="0.7" rx="0.5"/>
  <rect x="44" y="71" width="2" height="2" fill="rgba(255,255,200,0.4)" rx="0.3"/>
  <rect x="36" y="54" width="4" height="4" fill="#FFE0B2" opacity="0.7" rx="0.5"/>
  <rect x="37" y="55" width="2" height="2" fill="rgba(255,255,200,0.4)" rx="0.3"/>
  <rect x="43" y="54" width="4" height="4" fill="#FFE0B2" opacity="0.7" rx="0.5"/>
  <rect x="44" y="55" width="2" height="2" fill="rgba(255,255,200,0.4)" rx="0.3"/>
  <rect x="36" y="38" width="4" height="4" fill="#FFE0B2" opacity="0.7" rx="0.5"/>
  <rect x="37" y="39" width="2" height="2" fill="rgba(255,255,200,0.4)" rx="0.3"/>
  <rect x="43" y="38" width="4" height="4" fill="#FFE0B2" opacity="0.7" rx="0.5"/>
  <rect x="44" y="39" width="2" height="2" fill="rgba(255,255,200,0.4)" rx="0.3"/>
  <!-- Wide ornate entrance -->
  <rect x="33" y="68" width="9" height="12" fill="rgb(64,54,50)" rx="1"/>
  <rect x="34" y="69" width="7" height="11" fill="rgb(88,74,69)" rx="0.5"/>
  <path d="M33,68 Q37.5,64 42,68" fill="none" stroke="#FFE0B2" stroke-width="0.5" opacity="0.5"/>
  <!-- Chimney -->
  <rect x="18" y="12" width="3" height="10" fill="rgb(87,60,52)" rx="0.3"/>
</svg>