<svg xmlns="http://www.w3.org/2000/svg" width="32" height="48" viewBox="0 0 32 48"><ellipse cx="16" cy="45" rx="10" ry="5" fill="rgba(0,0,0,0.2)"/><path d="M7,40.8 Q6,21.6 16,16.799999999999997 Q26,21.6 25,40.8 Z" fill="#1A237E"/><path d="M11,40.8 Q10,24 16,18.240000000000002 Q18,24 17,40.8 Z" fill="#283593" opacity="0.5"/><rect x="9" y="26.400000000000002" width="14" height="2" fill="#FFD700" rx="0.5"/><circle cx="16" cy="13.440000000000001" r="7" fill="#FFCC80"/><circle cx="13.5" cy="12.96" r="1" fill="#333"/><circle cx="18.5" cy="12.96" r="1" fill="#333"/><ellipse cx="16" cy="16.799999999999997" rx="4" ry="3" fill="#8D6E63"/><polygon points="16,0.96 27,10.56 5,10.56" fill="#1A237E"/><rect x="3" y="9.600000000000001" width="26" height="3" fill="#1A237E" rx="1.5"/><polygon points="16,3.84 17.5,5.76 19,5.76 17.8,7.199999999999999 18.5,9.120000000000001 16,7.68 13.5,9.120000000000001 14.2,7.199999999999999 13,5.76 14.5,5.76" fill="#FFD700"/><line x1="26" y1="14.399999999999999" x2="28" y2="39.36" stroke="#5D4037" stroke-width="2" stroke-linecap="round"/><circle cx="26" cy="13.440000000000001" r="3" fill="#7C4DFF"/><circle cx="26" cy="13.440000000000001" r="4.5" fill="rgba(124,77,255,0.2)"/></svg>