<svg xmlns="http://www.w3.org/2000/svg" width="64" height="96" viewBox="0 0 64 96">
  <ellipse cx="32" cy="88" rx="21" ry="7" fill="rgba(0,0,0,0.25)"/>
  <polygon points="20,84 32,78 32,58 20,64" fill="rgb(38,49,55)"/>
  <polygon points="32,78 44,84 44,64 32,58" fill="#37474F"/>
  <polygon points="17,65 32,55 32,58 17,68" fill="#455A64"/>
  <polygon points="32,55 47,65 47,68 32,58" fill="rgb(55,68,75)"/>
  <rect x="23" y="69" width="5" height="5" fill="#42A5F5" opacity="0.9" rx="0.5"/>
  <rect x="24" y="70" width="3" height="3" fill="rgba(130,200,255,0.6)" rx="0.3"/>
  <rect x="34" y="73" width="5" height="8" fill="rgb(22,28,31)" rx="0.8"/>
  <rect x="35" y="74" width="3" height="7" fill="rgb(30,38,42)" rx="0.5"/>
  <rect x="39" y="52" width="3" height="8" fill="#455A64" rx="0.3"/>
  <circle cx="40.5" cy="50" r="1.5" fill="rgba(180,180,180,0.3)"/>
  <circle cx="41.5" cy="47" r="1" fill="rgba(180,180,180,0.2)"/>
</svg>
