<svg xmlns="http://www.w3.org/2000/svg" width="64" height="96" viewBox="0 0 64 96">
  <ellipse cx="32" cy="88" rx="21" ry="7" fill="rgba(0,0,0,0.25)"/>
  <polygon points="16,84 32,76 32,34 16,42" fill="rgb(38,49,55)"/>
  <polygon points="32,76 48,84 48,42 32,34" fill="#37474F"/>
  <line x1="16" y1="70" x2="32" y2="62" stroke="rgba(0,0,0,0.15)" stroke-width="0.5"/>
  <line x1="32" y1="62" x2="48" y2="70" stroke="rgba(0,0,0,0.1)" stroke-width="0.5"/>
  <line x1="16" y1="56" x2="32" y2="48" stroke="rgba(0,0,0,0.15)" stroke-width="0.5"/>
  <line x1="32" y1="48" x2="48" y2="56" stroke="rgba(0,0,0,0.1)" stroke-width="0.5"/>
  <polygon points="13,43 32,31 32,34 13,46" fill="#455A64"/>
  <polygon points="32,31 51,43 51,46 32,34" fill="rgb(55,68,75)"/>
  <rect x="20" y="72" width="4" height="4" fill="#42A5F5" opacity="0.9" rx="0.5"/>
  <rect x="21" y="73" width="2" height="2" fill="rgba(130,200,255,0.6)" rx="0.3"/>
  <rect x="27" y="72" width="4" height="4" fill="#42A5F5" opacity="0.9" rx="0.5"/>
  <rect x="28" y="73" width="2" height="2" fill="rgba(130,200,255,0.6)" rx="0.3"/>
  <rect x="20" y="58" width="4" height="4" fill="#42A5F5" opacity="0.9" rx="0.5"/>
  <rect x="21" y="59" width="2" height="2" fill="rgba(130,200,255,0.6)" rx="0.3"/>
  <rect x="27" y="58" width="4" height="4" fill="#42A5F5" opacity="0.9" rx="0.5"/>
  <rect x="28" y="59" width="2" height="2" fill="rgba(130,200,255,0.6)" rx="0.3"/>
  <rect x="20" y="44" width="4" height="4" fill="#42A5F5" opacity="0.9" rx="0.5"/>
  <rect x="21" y="45" width="2" height="2" fill="rgba(130,200,255,0.6)" rx="0.3"/>
  <rect x="27" y="44" width="4" height="4" fill="#42A5F5" opacity="0.9" rx="0.5"/>
  <rect x="28" y="45" width="2" height="2" fill="rgba(130,200,255,0.6)" rx="0.3"/>
  <rect x="36" y="72" width="4" height="4" fill="#42A5F5" opacity="0.7" rx="0.5"/>
  <rect x="37" y="73" width="2" height="2" fill="rgba(130,200,255,0.4)" rx="0.3"/>
  <rect x="43" y="72" width="4" height="4" fill="#42A5F5" opacity="0.7" rx="0.5"/>
  <rect x="44" y="73" width="2" height="2" fill="rgba(130,200,255,0.4)" rx="0.3"/>
  <rect x="36" y="58" width="4" height="4" fill="#42A5F5" opacity="0.7" rx="0.5"/>
  <rect x="37" y="59" width="2" height="2" fill="rgba(130,200,255,0.4)" rx="0.3"/>
  <rect x="43" y="58" width="4" height="4" fill="#42A5F5" opacity="0.7" rx="0.5"/>
  <rect x="44" y="59" width="2" height="2" fill="rgba(130,200,255,0.4)" rx="0.3"/>
  <rect x="36" y="44" width="4" height="4" fill="#42A5F5" opacity="0.7" rx="0.5"/>
  <rect x="37" y="45" width="2" height="2" fill="rgba(130,200,255,0.4)" rx="0.3"/>
  <rect x="43" y="44" width="4" height="4" fill="#42A5F5" opacity="0.7" rx="0.5"/>
  <rect x="44" y="45" width="2" height="2" fill="rgba(130,200,255,0.4)" rx="0.3"/>
  <rect x="34" y="70" width="7" height="10" fill="rgb(22,28,31)" rx="1"/>
  <rect x="35" y="71" width="5" height="9" fill="rgb(30,38,42)" rx="0.5"/>
  <line x1="34" y1="73" x2="41" y2="73" stroke="rgb(55,68,75)" stroke-width="0.5"/>
  <line x1="34" y1="76" x2="41" y2="76" stroke="rgb(55,68,75)" stroke-width="0.5"/>
  <rect x="20" y="28" width="3" height="8" fill="#455A64" rx="0.3"/>
  <rect x="41" y="28" width="3" height="8" fill="#455A64" rx="0.3"/>
  <circle cx="21.5" cy="26" r="1.5" fill="rgba(180,180,180,0.3)"/>
  <circle cx="42.5" cy="26" r="1.5" fill="rgba(180,180,180,0.3)"/>
  <polygon points="30,30 32,24 34,30" fill="rgba(66,165,245,0.4)" stroke="#42A5F5" stroke-width="0.5"/>
  <rect x="31" y="22" width="2" height="3" fill="rgba(66,165,245,0.3)"/>
</svg>
