<svg xmlns="http://www.w3.org/2000/svg" width="64" height="96" viewBox="0 0 64 96"><ellipse cx="32" cy="88" rx="21.12" ry="7.040000000000001" fill="rgba(0,0,0,0.25)"/><polygon points="14.399999999999999,84 32,75.2 32,27.2 14.399999999999999,36" fill="rgb(38,49,55)"/><polygon points="32,75.2 49.6,84 49.6,36 32,27.2" fill="#37474F"/><line x1="14.399999999999999" y1="68" x2="32" y2="59.2" stroke="rgba(0,0,0,0.15)" stroke-width="0.5"/><line x1="32" y1="59.2" x2="49.6" y2="68" stroke="rgba(0,0,0,0.1)" stroke-width="0.5"/><line x1="14.399999999999999" y1="52" x2="32" y2="43.2" stroke="rgba(0,0,0,0.15)" stroke-width="0.5"/><line x1="32" y1="43.2" x2="49.6" y2="52" stroke="rgba(0,0,0,0.1)" stroke-width="0.5"/><rect x="20.4" y="76" width="5" height="5" fill="#42A5F5" opacity="0.9" rx="0.5"/><rect x="21.4" y="77" width="3" height="3" fill="rgba(255,255,200,0.5)" rx="0.3"/><rect x="30.4" y="76" width="5" height="5" fill="#42A5F5" opacity="0.9" rx="0.5"/><rect x="31.4" y="77" width="3" height="3" fill="rgba(255,255,200,0.5)" rx="0.3"/><rect x="20.4" y="60" width="5" height="5" fill="#42A5F5" opacity="0.9" rx="0.5"/><rect x="21.4" y="61" width="3" height="3" fill="rgba(255,255,200,0.5)" rx="0.3"/><rect x="30.4" y="60" width="5" height="5" fill="#42A5F5" opacity="0.9" rx="0.5"/><rect x="31.4" y="61" width="3" height="3" fill="rgba(255,255,200,0.5)" rx="0.3"/><rect x="20.4" y="44" width="5" height="5" fill="#42A5F5" opacity="0.9" rx="0.5"/><rect x="21.4" y="45" width="3" height="3" fill="rgba(255,255,200,0.5)" rx="0.3"/><rect x="30.4" y="44" width="5" height="5" fill="#42A5F5" opacity="0.9" rx="0.5"/><rect x="31.4" y="45" width="3" height="3" fill="rgba(255,255,200,0.5)" rx="0.3"/><rect x="36" y="76" width="5" height="5" fill="#42A5F5" opacity="0.7" rx="0.5"/><rect x="37" y="77" width="3" height="3" fill="rgba(255,255,200,0.4)" rx="0.3"/><rect x="46" y="76" width="5" height="5" fill="#42A5F5" opacity="0.7" rx="0.5"/><rect x="47" y="77" width="3" height="3" fill="rgba(255,255,200,0.4)" rx="0.3"/><rect x="36" y="60" width="5" height="5" fill="#42A5F5" opacity="0.7" rx="0.5"/><rect x="37" y="61" width="3" height="3" fill="rgba(255,255,200,0.4)" rx="0.3"/><rect x="46" y="60" width="5" height="5" fill="#42A5F5" opacity="0.7" rx="0.5"/><rect x="47" y="61" width="3" height="3" fill="rgba(255,255,200,0.4)" rx="0.3"/><rect x="36" y="44" width="5" height="5" fill="#42A5F5" opacity="0.7" rx="0.5"/><rect x="37" y="45" width="3" height="3" fill="rgba(255,255,200,0.4)" rx="0.3"/><rect x="46" y="44" width="5" height="5" fill="#42A5F5" opacity="0.7" rx="0.5"/><rect x="47" y="45" width="3" height="3" fill="rgba(255,255,200,0.4)" rx="0.3"/><polygon points="12.399999999999999,36 32,24.2 51.6,36 51.6,33 32,21.2 12.399999999999999,33" fill="#455A64"/><rect x="18.4" y="30" width="3" height="3" fill="rgb(48,62,70)"/><rect x="26.4" y="30" width="3" height="3" fill="rgb(48,62,70)"/><rect x="34.4" y="30" width="3" height="3" fill="rgb(48,62,70)"/><rect x="34" y="68.6" width="8" height="11" fill="rgb(22,28,31)" rx="1"/><rect x="35" y="69.6" width="6" height="10" fill="rgb(30,39,43)" rx="0.5"/><rect x="43.6" y="28" width="4" height="8" fill="rgb(27,35,39)" rx="0.5"/></svg>