<svg xmlns="http://www.w3.org/2000/svg" width="64" height="96" viewBox="0 0 64 96">
  <ellipse cx="32" cy="88" rx="21" ry="7" fill="rgba(0,0,0,0.25)"/>
  <polygon points="14,84 32,75 32,16 14,25" fill="rgb(38,49,55)"/>
  <polygon points="32,75 50,84 50,25 32,16" fill="#37474F"/>
  <line x1="14" y1="68" x2="32" y2="59" stroke="rgba(0,0,0,0.15)" stroke-width="0.5"/>
  <line x1="32" y1="59" x2="50" y2="68" stroke="rgba(0,0,0,0.1)" stroke-width="0.5"/>
  <line x1="14" y1="52" x2="32" y2="43" stroke="rgba(0,0,0,0.15)" stroke-width="0.5"/>
  <line x1="32" y1="43" x2="50" y2="52" stroke="rgba(0,0,0,0.1)" stroke-width="0.5"/>
  <line x1="14" y1="36" x2="32" y2="27" stroke="rgba(0,0,0,0.15)" stroke-width="0.5"/>
  <line x1="32" y1="27" x2="50" y2="36" stroke="rgba(0,0,0,0.1)" stroke-width="0.5"/>
  <polygon points="11,26 32,13 32,16 11,29" fill="#455A64"/>
  <polygon points="32,13 53,26 53,29 32,16" fill="rgb(55,68,75)"/>
  <polygon points="14,25 32,16 50,25 50,28 32,19 14,28" fill="rgb(45,58,65)"/>
  <rect x="19" y="71" width="4" height="4" fill="#42A5F5" opacity="0.9" rx="0.5"/>
  <rect x="20" y="72" width="2" height="2" fill="rgba(130,200,255,0.6)" rx="0.3"/>
  <rect x="26" y="71" width="4" height="4" fill="#42A5F5" opacity="0.9" rx="0.5"/>
  <rect x="27" y="72" width="2" height="2" fill="rgba(130,200,255,0.6)" rx="0.3"/>
  <rect x="19" y="55" width="4" height="4" fill="#42A5F5" opacity="0.9" rx="0.5"/>
  <rect x="20" y="56" width="2" height="2" fill="rgba(130,200,255,0.6)" rx="0.3"/>
  <rect x="26" y="55" width="4" height="4" fill="#42A5F5" opacity="0.9" rx="0.5"/>
  <rect x="27" y="56" width="2" height="2" fill="rgba(130,200,255,0.6)" rx="0.3"/>
  <rect x="19" y="39" width="4" height="4" fill="#42A5F5" opacity="0.9" rx="0.5"/>
  <rect x="20" y="40" width="2" height="2" fill="rgba(130,200,255,0.6)" rx="0.3"/>
  <rect x="26" y="39" width="4" height="4" fill="#42A5F5" opacity="0.9" rx="0.5"/>
  <rect x="27" y="40" width="2" height="2" fill="rgba(130,200,255,0.6)" rx="0.3"/>
  <rect x="35" y="71" width="4" height="4" fill="#42A5F5" opacity="0.7" rx="0.5"/>
  <rect x="36" y="72" width="2" height="2" fill="rgba(130,200,255,0.4)" rx="0.3"/>
  <rect x="42" y="71" width="4" height="4" fill="#42A5F5" opacity="0.7" rx="0.5"/>
  <rect x="43" y="72" width="2" height="2" fill="rgba(130,200,255,0.4)" rx="0.3"/>
  <rect x="35" y="55" width="4" height="4" fill="#42A5F5" opacity="0.7" rx="0.5"/>
  <rect x="36" y="56" width="2" height="2" fill="rgba(130,200,255,0.4)" rx="0.3"/>
  <rect x="42" y="55" width="4" height="4" fill="#42A5F5" opacity="0.7" rx="0.5"/>
  <rect x="43" y="56" width="2" height="2" fill="rgba(130,200,255,0.4)" rx="0.3"/>
  <rect x="35" y="39" width="4" height="4" fill="#42A5F5" opacity="0.7" rx="0.5"/>
  <rect x="36" y="40" width="2" height="2" fill="rgba(130,200,255,0.4)" rx="0.3"/>
  <rect x="42" y="39" width="4" height="4" fill="#42A5F5" opacity="0.7" rx="0.5"/>
  <rect x="43" y="40" width="2" height="2" fill="rgba(130,200,255,0.4)" rx="0.3"/>
  <rect x="34" y="70" width="8" height="11" fill="rgb(22,28,31)" rx="1"/>
  <rect x="35" y="71" width="6" height="10" fill="rgb(30,38,42)" rx="0.5"/>
  <line x1="32" y1="13" x2="32" y2="-2" stroke="#455A64" stroke-width="1.5"/>
  <circle cx="32" cy="-3" r="2" fill="#42A5F5" opacity="0.8"/>
  <circle cx="32" cy="-3" r="1" fill="rgba(130,200,255,0.6)"/>
  <line x1="29" y1="4" x2="35" y2="4" stroke="#455A64" stroke-width="0.5"/>
  <line x1="30" y1="8" x2="34" y2="8" stroke="#455A64" stroke-width="0.5"/>
</svg>
