<svg xmlns="http://www.w3.org/2000/svg" width="64" height="96" viewBox="0 0 64 96">
  <ellipse cx="32" cy="88" rx="21" ry="7" fill="rgba(0,0,0,0.25)"/>
  <polygon points="12,84 32,74 32,8 12,18" fill="rgb(38,49,55)"/>
  <polygon points="32,74 52,84 52,18 32,8" fill="#37474F"/>
  <line x1="12" y1="68" x2="32" y2="58" stroke="rgba(0,0,0,0.15)" stroke-width="0.5"/>
  <line x1="32" y1="58" x2="52" y2="68" stroke="rgba(0,0,0,0.1)" stroke-width="0.5"/>
  <line x1="12" y1="52" x2="32" y2="42" stroke="rgba(0,0,0,0.15)" stroke-width="0.5"/>
  <line x1="32" y1="42" x2="52" y2="52" stroke="rgba(0,0,0,0.1)" stroke-width="0.5"/>
  <line x1="12" y1="36" x2="32" y2="26" stroke="rgba(0,0,0,0.15)" stroke-width="0.5"/>
  <line x1="32" y1="26" x2="52" y2="36" stroke="rgba(0,0,0,0.1)" stroke-width="0.5"/>
  <line x1="12" y1="20" x2="32" y2="10" stroke="rgba(0,0,0,0.15)" stroke-width="0.5"/>
  <line x1="32" y1="10" x2="52" y2="20" stroke="rgba(0,0,0,0.1)" stroke-width="0.5"/>
  <polygon points="12,18 32,8 52,18 52,14 32,4 12,14" fill="#455A64"/>
  <ellipse cx="32" cy="2" rx="10" ry="6" fill="rgb(55,68,75)"/>
  <ellipse cx="32" cy="2" rx="8" ry="4" fill="#455A64"/>
  <rect x="31" y="-3" width="2" height="6" fill="rgb(38,49,55)" rx="0.5"/>
  <polygon points="32,-8 29,-3 35,-3" fill="#42A5F5" opacity="0.8"/>
  <polygon points="32,-10 30,-5 34,-5" fill="rgba(130,200,255,0.6)"/>
  <circle cx="32" cy="-8" r="2" fill="rgba(66,165,245,0.4)"/>
  <rect x="17" y="70" width="4" height="4" fill="#42A5F5" opacity="0.9" rx="0.5"/>
  <rect x="18" y="71" width="2" height="2" fill="rgba(130,200,255,0.6)" rx="0.3"/>
  <rect x="24" y="70" width="4" height="4" fill="#42A5F5" opacity="0.9" rx="0.5"/>
  <rect x="25" y="71" width="2" height="2" fill="rgba(130,200,255,0.6)" rx="0.3"/>
  <rect x="17" y="54" width="4" height="4" fill="#42A5F5" opacity="0.9" rx="0.5"/>
  <rect x="18" y="55" width="2" height="2" fill="rgba(130,200,255,0.6)" rx="0.3"/>
  <rect x="24" y="54" width="4" height="4" fill="#42A5F5" opacity="0.9" rx="0.5"/>
  <rect x="25" y="55" width="2" height="2" fill="rgba(130,200,255,0.6)" rx="0.3"/>
  <rect x="17" y="38" width="4" height="4" fill="#42A5F5" opacity="0.9" rx="0.5"/>
  <rect x="18" y="39" width="2" height="2" fill="rgba(130,200,255,0.6)" rx="0.3"/>
  <rect x="24" y="38" width="4" height="4" fill="#42A5F5" opacity="0.9" rx="0.5"/>
  <rect x="25" y="39" width="2" height="2" fill="rgba(130,200,255,0.6)" rx="0.3"/>
  <rect x="17" y="22" width="4" height="4" fill="#42A5F5" opacity="0.9" rx="0.5"/>
  <rect x="18" y="23" width="2" height="2" fill="rgba(130,200,255,0.6)" rx="0.3"/>
  <rect x="24" y="22" width="4" height="4" fill="#42A5F5" opacity="0.9" rx="0.5"/>
  <rect x="25" y="23" width="2" height="2" fill="rgba(130,200,255,0.6)" rx="0.3"/>
  <rect x="35" y="70" width="4" height="4" fill="#42A5F5" opacity="0.7" rx="0.5"/>
  <rect x="36" y="71" width="2" height="2" fill="rgba(130,200,255,0.4)" rx="0.3"/>
  <rect x="42" y="70" width="4" height="4" fill="#42A5F5" opacity="0.7" rx="0.5"/>
  <rect x="43" y="71" width="2" height="2" fill="rgba(130,200,255,0.4)" rx="0.3"/>
  <rect x="35" y="54" width="4" height="4" fill="#42A5F5" opacity="0.7" rx="0.5"/>
  <rect x="36" y="55" width="2" height="2" fill="rgba(130,200,255,0.4)" rx="0.3"/>
  <rect x="42" y="54" width="4" height="4" fill="#42A5F5" opacity="0.7" rx="0.5"/>
  <rect x="43" y="55" width="2" height="2" fill="rgba(130,200,255,0.4)" rx="0.3"/>
  <rect x="35" y="38" width="4" height="4" fill="#42A5F5" opacity="0.7" rx="0.5"/>
  <rect x="36" y="39" width="2" height="2" fill="rgba(130,200,255,0.4)" rx="0.3"/>
  <rect x="42" y="38" width="4" height="4" fill="#42A5F5" opacity="0.7" rx="0.5"/>
  <rect x="43" y="39" width="2" height="2" fill="rgba(130,200,255,0.4)" rx="0.3"/>
  <rect x="35" y="22" width="4" height="4" fill="#42A5F5" opacity="0.7" rx="0.5"/>
  <rect x="36" y="23" width="2" height="2" fill="rgba(130,200,255,0.4)" rx="0.3"/>
  <rect x="42" y="22" width="4" height="4" fill="#42A5F5" opacity="0.7" rx="0.5"/>
  <rect x="43" y="23" width="2" height="2" fill="rgba(130,200,255,0.4)" rx="0.3"/>
  <rect x="33" y="69" width="9" height="12" fill="rgb(22,28,31)" rx="1"/>
  <rect x="34" y="70" width="7" height="11" fill="rgb(30,38,42)" rx="0.5"/>
  <path d="M33,69 Q37.5,65 42,69" fill="none" stroke="#42A5F5" stroke-width="0.5" opacity="0.6"/>
  <line x1="48" y1="-4" x2="48" y2="-16" stroke="#455A64" stroke-width="1"/>
  <polygon points="49,-16 57,-13 49,-10" fill="#42A5F5"/>
</svg>
