<svg xmlns="http://www.w3.org/2000/svg" width="64" height="96" viewBox="0 0 64 96">
  <ellipse cx="32" cy="88" rx="21" ry="7" fill="rgba(0,0,0,0.25)"/>
  <polygon points="22,84 32,79 32,54 22,59" fill="rgb(51,14,98)"/>
  <polygon points="32,79 42,84 42,59 32,54" fill="#4A148C"/>
  <rect x="22" y="52" width="3" height="4" fill="rgb(51,14,98)"/>
  <rect x="27" y="52" width="3" height="4" fill="rgb(51,14,98)"/>
  <rect x="33" y="52" width="3" height="4" fill="#4A148C"/>
  <rect x="38" y="52" width="3" height="4" fill="#4A148C"/>
  <polygon points="20,56 32,51 44,56 44,59 32,54 20,59" fill="rgb(84,21,123)"/>
  <rect x="25" y="67" width="4" height="5" fill="#CE93D8" opacity="0.9" rx="0.5"/>
  <rect x="26" y="68" width="2" height="3" fill="rgba(206,147,216,0.5)" rx="0.3"/>
  <rect x="34" y="73" width="5" height="8" fill="rgb(29,8,56)" rx="0.8"/>
  <rect x="35" y="74" width="3" height="7" fill="rgb(40,12,75)" rx="0.5"/>
</svg>