<svg xmlns="http://www.w3.org/2000/svg" width="64" height="96" viewBox="0 0 64 96">
  <ellipse cx="32" cy="88" rx="21" ry="7" fill="rgba(0,0,0,0.25)"/>
  <polygon points="21,84 32,78 32,40 21,46" fill="rgb(51,14,98)"/>
  <polygon points="32,78 43,84 43,46 32,40" fill="#4A148C"/>
  <line x1="21" y1="65" x2="32" y2="59" stroke="rgba(0,0,0,0.15)" stroke-width="0.5"/>
  <line x1="32" y1="59" x2="43" y2="65" stroke="rgba(0,0,0,0.1)" stroke-width="0.5"/>
  <rect x="21" y="38" width="3" height="4" fill="rgb(51,14,98)"/>
  <rect x="26" y="38" width="3" height="4" fill="rgb(51,14,98)"/>
  <rect x="33" y="38" width="3" height="4" fill="#4A148C"/>
  <rect x="38" y="38" width="3" height="4" fill="#4A148C"/>
  <polygon points="19,42 32,37 45,42 45,46 32,40 19,46" fill="rgb(84,21,123)"/>
  <rect x="24" y="68" width="4" height="5" fill="#CE93D8" opacity="0.9" rx="0.5"/>
  <rect x="25" y="69" width="2" height="3" fill="rgba(206,147,216,0.5)" rx="0.3"/>
  <rect x="24" y="52" width="4" height="5" fill="#CE93D8" opacity="0.9" rx="0.5"/>
  <rect x="25" y="53" width="2" height="3" fill="rgba(206,147,216,0.5)" rx="0.3"/>
  <rect x="35" y="68" width="4" height="5" fill="#CE93D8" opacity="0.7" rx="0.5"/>
  <rect x="36" y="69" width="2" height="3" fill="rgba(206,147,216,0.4)" rx="0.3"/>
  <rect x="35" y="52" width="4" height="5" fill="#CE93D8" opacity="0.7" rx="0.5"/>
  <rect x="36" y="53" width="2" height="3" fill="rgba(206,147,216,0.4)" rx="0.3"/>
  <rect x="34" y="72" width="5" height="9" fill="rgb(29,8,56)" rx="0.8"/>
  <rect x="35" y="73" width="3" height="8" fill="rgb(40,12,75)" rx="0.5"/>
  <line x1="42" y1="35" x2="42" y2="25" stroke="rgb(84,21,123)" stroke-width="0.8"/>
  <polygon points="43,25 49,27.5 43,30" fill="#CE93D8"/>
</svg>