<svg xmlns="http://www.w3.org/2000/svg" width="64" height="96" viewBox="0 0 64 96">
  <ellipse cx="32" cy="88" rx="21" ry="7" fill="rgba(0,0,0,0.25)"/>
  <polygon points="20,84 32,78 32,30 20,36" fill="rgb(51,14,98)"/>
  <polygon points="32,78 44,84 44,36 32,30" fill="#4A148C"/>
  <line x1="20" y1="68" x2="32" y2="62" stroke="rgba(0,0,0,0.15)" stroke-width="0.5"/>
  <line x1="32" y1="62" x2="44" y2="68" stroke="rgba(0,0,0,0.1)" stroke-width="0.5"/>
  <line x1="20" y1="52" x2="32" y2="46" stroke="rgba(0,0,0,0.15)" stroke-width="0.5"/>
  <line x1="32" y1="46" x2="44" y2="52" stroke="rgba(0,0,0,0.1)" stroke-width="0.5"/>
  <polygon points="32,14 18,34 32,30" fill="rgb(84,21,123)"/>
  <polygon points="32,14 32,30 46,34" fill="#6A1B9A"/>
  <polygon points="18,34 32,30 46,34 46,36 32,32 18,36" fill="rgb(64,16,94)"/>
  <rect x="23" y="70" width="4" height="5" fill="#CE93D8" opacity="0.9" rx="0.5"/>
  <rect x="24" y="71" width="2" height="3" fill="rgba(206,147,216,0.5)" rx="0.3"/>
  <rect x="23" y="55" width="4" height="5" fill="#CE93D8" opacity="0.9" rx="0.5"/>
  <rect x="24" y="56" width="2" height="3" fill="rgba(206,147,216,0.5)" rx="0.3"/>
  <rect x="23" y="40" width="4" height="5" fill="#CE93D8" opacity="0.9" rx="0.5"/>
  <rect x="24" y="41" width="2" height="3" fill="rgba(206,147,216,0.5)" rx="0.3"/>
  <rect x="36" y="70" width="4" height="5" fill="#CE93D8" opacity="0.7" rx="0.5"/>
  <rect x="37" y="71" width="2" height="3" fill="rgba(206,147,216,0.4)" rx="0.3"/>
  <rect x="36" y="55" width="4" height="5" fill="#CE93D8" opacity="0.7" rx="0.5"/>
  <rect x="37" y="56" width="2" height="3" fill="rgba(206,147,216,0.4)" rx="0.3"/>
  <rect x="36" y="40" width="4" height="5" fill="#CE93D8" opacity="0.7" rx="0.5"/>
  <rect x="37" y="41" width="2" height="3" fill="rgba(206,147,216,0.4)" rx="0.3"/>
  <rect x="34" y="72" width="6" height="9" fill="rgb(29,8,56)" rx="0.8"/>
  <rect x="35" y="73" width="4" height="8" fill="rgb(40,12,75)" rx="0.5"/>
  <circle cx="32" cy="12" r="3" fill="rgba(206,147,216,0.4)"/>
  <circle cx="32" cy="12" r="2" fill="#CE93D8" opacity="0.8"/>
  <circle cx="32" cy="12" r="1" fill="rgba(255,255,255,0.6)"/>
</svg>