<svg xmlns="http://www.w3.org/2000/svg" width="64" height="96" viewBox="0 0 64 96">
  <ellipse cx="32" cy="88" rx="21" ry="7" fill="rgba(0,0,0,0.25)"/>
  <polygon points="20,84 32,78 32,12 20,18" fill="rgb(51,14,98)"/>
  <polygon points="32,78 44,84 44,18 32,12" fill="#4A148C"/>
  <line x1="20" y1="66" x2="32" y2="60" stroke="rgba(0,0,0,0.15)" stroke-width="0.5"/>
  <line x1="32" y1="60" x2="44" y2="66" stroke="rgba(0,0,0,0.1)" stroke-width="0.5"/>
  <line x1="20" y1="48" x2="32" y2="42" stroke="rgba(0,0,0,0.15)" stroke-width="0.5"/>
  <line x1="32" y1="42" x2="44" y2="48" stroke="rgba(0,0,0,0.1)" stroke-width="0.5"/>
  <line x1="20" y1="30" x2="32" y2="24" stroke="rgba(0,0,0,0.15)" stroke-width="0.5"/>
  <line x1="32" y1="24" x2="44" y2="30" stroke="rgba(0,0,0,0.1)" stroke-width="0.5"/>
  <polygon points="32,-2 17,16 32,12" fill="rgb(84,21,123)"/>
  <polygon points="32,-2 32,12 47,16" fill="#6A1B9A"/>
  <polygon points="16,18 32,12 48,18 48,20 32,14 16,20" fill="rgb(64,16,94)"/>
  <rect x="16" y="16" width="1" height="4" fill="rgb(84,21,123)"/>
  <rect x="22" y="14" width="1" height="4" fill="rgb(84,21,123)"/>
  <rect x="28" y="12" width="1" height="4" fill="rgb(84,21,123)"/>
  <rect x="35" y="12" width="1" height="4" fill="#6A1B9A"/>
  <rect x="41" y="14" width="1" height="4" fill="#6A1B9A"/>
  <rect x="47" y="16" width="1" height="4" fill="#6A1B9A"/>
  <rect x="23" y="70" width="4" height="5" fill="#CE93D8" opacity="0.9" rx="0.5"/>
  <rect x="24" y="71" width="2" height="3" fill="rgba(206,147,216,0.5)" rx="0.3"/>
  <rect x="23" y="52" width="4" height="5" fill="#CE93D8" opacity="0.9" rx="0.5"/>
  <rect x="24" y="53" width="2" height="3" fill="rgba(206,147,216,0.5)" rx="0.3"/>
  <rect x="23" y="34" width="4" height="5" fill="#CE93D8" opacity="0.9" rx="0.5"/>
  <rect x="24" y="35" width="2" height="3" fill="rgba(206,147,216,0.5)" rx="0.3"/>
  <rect x="36" y="70" width="4" height="5" fill="#CE93D8" opacity="0.7" rx="0.5"/>
  <rect x="37" y="71" width="2" height="3" fill="rgba(206,147,216,0.4)" rx="0.3"/>
  <rect x="36" y="52" width="4" height="5" fill="#CE93D8" opacity="0.7" rx="0.5"/>
  <rect x="37" y="53" width="2" height="3" fill="rgba(206,147,216,0.4)" rx="0.3"/>
  <rect x="36" y="34" width="4" height="5" fill="#CE93D8" opacity="0.7" rx="0.5"/>
  <rect x="37" y="35" width="2" height="3" fill="rgba(206,147,216,0.4)" rx="0.3"/>
  <rect x="34" y="72" width="6" height="9" fill="rgb(29,8,56)" rx="0.8"/>
  <rect x="35" y="73" width="4" height="8" fill="rgb(40,12,75)" rx="0.5"/>
  <polygon points="32,-8 29,-2 35,-2" fill="#CE93D8" opacity="0.8"/>
  <polygon points="32,-8 29,-2 32,-4" fill="rgba(206,147,216,0.5)"/>
  <circle cx="32" cy="-5" r="3" fill="rgba(206,147,216,0.2)"/>
</svg>