<svg xmlns="http://www.w3.org/2000/svg" width="64" height="96" viewBox="0 0 64 96">
  <ellipse cx="32" cy="88" rx="21" ry="7" fill="rgba(0,0,0,0.25)"/>
  <ellipse cx="32" cy="40" rx="22" ry="40" fill="rgba(206,147,216,0.06)"/>
  <polygon points="19,84 32,77 32,2 19,9" fill="rgb(51,14,98)"/>
  <polygon points="32,77 45,84 45,9 32,2" fill="#4A148C"/>
  <line x1="19" y1="66" x2="32" y2="59" stroke="rgba(0,0,0,0.15)" stroke-width="0.5"/>
  <line x1="32" y1="59" x2="45" y2="66" stroke="rgba(0,0,0,0.1)" stroke-width="0.5"/>
  <line x1="19" y1="48" x2="32" y2="41" stroke="rgba(0,0,0,0.15)" stroke-width="0.5"/>
  <line x1="32" y1="41" x2="45" y2="48" stroke="rgba(0,0,0,0.1)" stroke-width="0.5"/>
  <line x1="19" y1="30" x2="32" y2="23" stroke="rgba(0,0,0,0.15)" stroke-width="0.5"/>
  <line x1="32" y1="23" x2="45" y2="30" stroke="rgba(0,0,0,0.1)" stroke-width="0.5"/>
  <line x1="19" y1="12" x2="32" y2="5" stroke="rgba(0,0,0,0.15)" stroke-width="0.5"/>
  <line x1="32" y1="5" x2="45" y2="12" stroke="rgba(0,0,0,0.1)" stroke-width="0.5"/>
  <polygon points="32,-16 16,7 32,2" fill="rgb(84,21,123)"/>
  <polygon points="32,-16 32,2 48,7" fill="#6A1B9A"/>
  <polygon points="16,7 32,2 48,7 48,9 32,4 16,9" fill="rgb(64,16,94)"/>
  <rect x="22" y="70" width="4" height="5" fill="#CE93D8" opacity="0.9" rx="0.5"/>
  <rect x="23" y="71" width="2" height="3" fill="rgba(206,147,216,0.5)" rx="0.3"/>
  <rect x="22" y="52" width="4" height="5" fill="#CE93D8" opacity="0.9" rx="0.5"/>
  <rect x="23" y="53" width="2" height="3" fill="rgba(206,147,216,0.5)" rx="0.3"/>
  <rect x="22" y="34" width="4" height="5" fill="#CE93D8" opacity="0.9" rx="0.5"/>
  <rect x="23" y="35" width="2" height="3" fill="rgba(206,147,216,0.5)" rx="0.3"/>
  <rect x="22" y="16" width="4" height="5" fill="#CE93D8" opacity="0.9" rx="0.5"/>
  <rect x="23" y="17" width="2" height="3" fill="rgba(206,147,216,0.5)" rx="0.3"/>
  <rect x="37" y="70" width="4" height="5" fill="#CE93D8" opacity="0.7" rx="0.5"/>
  <rect x="38" y="71" width="2" height="3" fill="rgba(206,147,216,0.4)" rx="0.3"/>
  <rect x="37" y="52" width="4" height="5" fill="#CE93D8" opacity="0.7" rx="0.5"/>
  <rect x="38" y="53" width="2" height="3" fill="rgba(206,147,216,0.4)" rx="0.3"/>
  <rect x="37" y="34" width="4" height="5" fill="#CE93D8" opacity="0.7" rx="0.5"/>
  <rect x="38" y="35" width="2" height="3" fill="rgba(206,147,216,0.4)" rx="0.3"/>
  <rect x="37" y="16" width="4" height="5" fill="#CE93D8" opacity="0.7" rx="0.5"/>
  <rect x="38" y="17" width="2" height="3" fill="rgba(206,147,216,0.4)" rx="0.3"/>
  <rect x="34" y="72" width="6" height="9" fill="rgb(29,8,56)" rx="0.8"/>
  <rect x="35" y="73" width="4" height="8" fill="rgb(40,12,75)" rx="0.5"/>
  <path d="M34,72 Q37,68 40,72" fill="none" stroke="#CE93D8" stroke-width="0.5" opacity="0.5"/>
  <polygon points="32,-22 29,-16 35,-16" fill="#CE93D8" opacity="0.9"/>
  <circle cx="32" cy="-19" r="2.5" fill="rgba(206,147,216,0.3)"/>
  <circle cx="32" cy="-19" r="1.5" fill="rgba(255,255,255,0.4)"/>
  <line x1="46" y1="-10" x2="46" y2="-22" stroke="rgb(84,21,123)" stroke-width="0.8"/>
  <polygon points="47,-22 54,-19 47,-16" fill="#CE93D8"/>
</svg>